<svg xmlns="http://www.w3.org/2000/svg" viewBox="0 0 667 375"><g transform="
          rotate(45 333.5 187.5) 
          translate(-321.7654832261162 -180.90263299819128)
          scale(1.9648140426570202)
        "><rect width="667" height="375" fill="rgb(59, 130, 246)"></rect><g transform="translate(0, 0)"><path fill="rgb(62, 113, 245)" fill-opacity="1" d="M0,52.521L3.833,52.095C7.667,51.668,15.333,50.814,23,50.682C30.667,50.549,38.333,51.138,46,51.205C53.667,51.271,61.333,50.814,69,45.117C76.667,39.419,84.333,28.48,92,27.556C99.667,26.632,107.333,35.723,115,32.937C122.667,30.151,130.333,15.486,138,14.655C145.667,13.823,153.333,26.824,161,30.062C168.667,33.301,176.333,26.776,184,20.737C191.667,14.699,199.333,9.145,207,12.012C214.667,14.878,222.333,26.165,230,28.2C237.667,30.235,245.333,23.019,253,19.407C260.667,15.795,268.333,15.787,276,21.023C283.667,26.259,291.333,36.738,299,42.366C306.667,47.994,314.333,48.771,322,42.362C329.667,35.954,337.333,22.361,345,16.759C352.667,11.158,360.333,13.549,368,18.791C375.667,24.032,383.333,32.123,391,37.847C398.667,43.571,406.333,46.927,414,44.719C421.667,42.512,429.333,34.74,437,26.832C444.667,18.925,452.333,10.881,460,6.453C467.667,2.025,475.333,1.211,483,6.113C490.667,11.014,498.333,21.631,506,24.968C513.667,28.304,521.333,24.362,529,20.265C536.667,16.167,544.333,11.914,552,10.752C559.667,9.59,567.333,11.52,575,12.888C582.667,14.257,590.333,15.064,598,19.8C605.667,24.536,613.333,33.2,621,39.1C628.667,45,636.333,48.136,644,50.018C651.667,51.899,659.333,52.525,663.167,52.838L667,53.151L667,375L663.167,375C659.333,375,651.667,375,644,375C636.333,375,628.667,375,621,375C613.333,375,605.667,375,598,375C590.333,375,582.667,375,575,375C567.333,375,559.667,375,552,375C544.333,375,536.667,375,529,375C521.333,375,513.667,375,506,375C498.333,375,490.667,375,483,375C475.333,375,467.667,375,460,375C452.333,375,444.667,375,437,375C429.333,375,421.667,375,414,375C406.333,375,398.667,375,391,375C383.333,375,375.667,375,368,375C360.333,375,352.667,375,345,375C337.333,375,329.667,375,322,375C314.333,375,306.667,375,299,375C291.333,375,283.667,375,276,375C268.333,375,260.667,375,253,375C245.333,375,237.667,375,230,375C222.333,375,214.667,375,207,375C199.333,375,191.667,375,184,375C176.333,375,168.667,375,161,375C153.333,375,145.667,375,138,375C130.333,375,122.667,375,115,375C107.333,375,99.667,375,92,375C84.333,375,76.667,375,69,375C61.333,375,53.667,375,46,375C38.333,375,30.667,375,23,375C15.333,375,7.667,375,3.833,375L0,375Z"></path></g><g transform="translate(0, 53.57142857142857)"><path fill="rgb(65, 96, 244)" fill-opacity="1" d="M0,29.536L3.833,27.209C7.667,24.882,15.333,20.228,23,16.166C30.667,12.104,38.333,8.634,46,13.761C53.667,18.888,61.333,32.611,69,40.501C76.667,48.391,84.333,50.448,92,51.55C99.667,52.651,107.333,52.797,115,49.744C122.667,46.691,130.333,40.439,138,36.535C145.667,32.631,153.333,31.075,161,27.896C168.667,24.716,176.333,19.913,184,23.707C191.667,27.5,199.333,39.891,207,45.058C214.667,50.225,222.333,48.168,230,47.584C237.667,46.999,245.333,47.886,253,46.857C260.667,45.828,268.333,42.882,276,35.534C283.667,28.186,291.333,16.435,299,17.842C306.667,19.249,314.333,33.815,322,37.124C329.667,40.433,337.333,32.486,345,25.729C352.667,18.971,360.333,13.403,368,13.288C375.667,13.174,383.333,18.512,391,25.951C398.667,33.391,406.333,42.931,414,43.503C421.667,44.075,429.333,35.679,437,30.732C444.667,25.785,452.333,24.286,460,20.302C467.667,16.318,475.333,9.85,483,6.539C490.667,3.229,498.333,3.075,506,5.988C513.667,8.9,521.333,14.878,529,22.98C536.667,31.081,544.333,41.307,552,44.774C559.667,48.242,567.333,44.951,575,37.582C582.667,30.213,590.333,18.766,598,20.175C605.667,21.583,613.333,35.847,621,38.075C628.667,40.303,636.333,30.495,644,28.197C651.667,25.898,659.333,31.109,663.167,33.714L667,36.319L667,321.429L663.167,321.429C659.333,321.429,651.667,321.429,644,321.429C636.333,321.429,628.667,321.429,621,321.429C613.333,321.429,605.667,321.429,598,321.429C590.333,321.429,582.667,321.429,575,321.429C567.333,321.429,559.667,321.429,552,321.429C544.333,321.429,536.667,321.429,529,321.429C521.333,321.429,513.667,321.429,506,321.429C498.333,321.429,490.667,321.429,483,321.429C475.333,321.429,467.667,321.429,460,321.429C452.333,321.429,444.667,321.429,437,321.429C429.333,321.429,421.667,321.429,414,321.429C406.333,321.429,398.667,321.429,391,321.429C383.333,321.429,375.667,321.429,368,321.429C360.333,321.429,352.667,321.429,345,321.429C337.333,321.429,329.667,321.429,322,321.429C314.333,321.429,306.667,321.429,299,321.429C291.333,321.429,283.667,321.429,276,321.429C268.333,321.429,260.667,321.429,253,321.429C245.333,321.429,237.667,321.429,230,321.429C222.333,321.429,214.667,321.429,207,321.429C199.333,321.429,191.667,321.429,184,321.429C176.333,321.429,168.667,321.429,161,321.429C153.333,321.429,145.667,321.429,138,321.429C130.333,321.429,122.667,321.429,115,321.429C107.333,321.429,99.667,321.429,92,321.429C84.333,321.429,76.667,321.429,69,321.429C61.333,321.429,53.667,321.429,46,321.429C38.333,321.429,30.667,321.429,23,321.429C15.333,321.429,7.667,321.429,3.833,321.429L0,321.429Z"></path></g><g transform="translate(0, 107.14285714285714)"><path fill="rgb(68, 79, 243)" fill-opacity="1" d="M0,22.614L3.833,25.435C7.667,28.256,15.333,33.897,23,36.641C30.667,39.386,38.333,39.233,46,36.6C53.667,33.968,61.333,28.857,69,27.382C76.667,25.907,84.333,28.069,92,29.125C99.667,30.182,107.333,30.133,115,29.608C122.667,29.082,130.333,28.079,138,27.199C145.667,26.319,153.333,25.561,161,21.958C168.667,18.355,176.333,11.906,184,8.054C191.667,4.203,199.333,2.95,207,4.739C214.667,6.529,222.333,11.36,230,14.398C237.667,17.435,245.333,18.679,253,18.96C260.667,19.242,268.333,18.562,276,20.15C283.667,21.738,291.333,25.594,299,28.373C306.667,31.151,314.333,32.852,322,35.515C329.667,38.178,337.333,41.803,345,41.184C352.667,40.565,360.333,35.702,368,30.673C375.667,25.645,383.333,20.451,391,20.58C398.667,20.71,406.333,26.163,414,25.297C421.667,24.43,429.333,17.245,437,19.195C444.667,21.145,452.333,32.231,460,34.407C467.667,36.583,475.333,29.849,483,31.35C490.667,32.85,498.333,42.584,506,46.686C513.667,50.789,521.333,49.259,529,44.967C536.667,40.675,544.333,33.619,552,33.187C559.667,32.754,567.333,38.944,575,38.435C582.667,37.927,590.333,30.72,598,27.756C605.667,24.793,613.333,26.073,621,23.27C628.667,20.466,636.333,13.58,644,14.701C651.667,15.821,659.333,24.948,663.167,29.512L667,34.075L667,267.857L663.167,267.857C659.333,267.857,651.667,267.857,644,267.857C636.333,267.857,628.667,267.857,621,267.857C613.333,267.857,605.667,267.857,598,267.857C590.333,267.857,582.667,267.857,575,267.857C567.333,267.857,559.667,267.857,552,267.857C544.333,267.857,536.667,267.857,529,267.857C521.333,267.857,513.667,267.857,506,267.857C498.333,267.857,490.667,267.857,483,267.857C475.333,267.857,467.667,267.857,460,267.857C452.333,267.857,444.667,267.857,437,267.857C429.333,267.857,421.667,267.857,414,267.857C406.333,267.857,398.667,267.857,391,267.857C383.333,267.857,375.667,267.857,368,267.857C360.333,267.857,352.667,267.857,345,267.857C337.333,267.857,329.667,267.857,322,267.857C314.333,267.857,306.667,267.857,299,267.857C291.333,267.857,283.667,267.857,276,267.857C268.333,267.857,260.667,267.857,253,267.857C245.333,267.857,237.667,267.857,230,267.857C222.333,267.857,214.667,267.857,207,267.857C199.333,267.857,191.667,267.857,184,267.857C176.333,267.857,168.667,267.857,161,267.857C153.333,267.857,145.667,267.857,138,267.857C130.333,267.857,122.667,267.857,115,267.857C107.333,267.857,99.667,267.857,92,267.857C84.333,267.857,76.667,267.857,69,267.857C61.333,267.857,53.667,267.857,46,267.857C38.333,267.857,30.667,267.857,23,267.857C15.333,267.857,7.667,267.857,3.833,267.857L0,267.857Z"></path></g><g transform="translate(0, 160.7142857142857)"><path fill="rgb(72, 61, 243)" fill-opacity="1" d="M0,0.071L3.833,4.001C7.667,7.93,15.333,15.788,23,23.054C30.667,30.321,38.333,36.995,46,33.157C53.667,29.318,61.333,14.965,69,14.169C76.667,13.372,84.333,26.13,92,28.146C99.667,30.163,107.333,21.437,115,19.164C122.667,16.891,130.333,21.071,138,22.313C145.667,23.555,153.333,21.859,161,25.073C168.667,28.287,176.333,36.412,184,33.763C191.667,31.114,199.333,17.691,207,16.863C214.667,16.035,222.333,27.804,230,31.649C237.667,35.495,245.333,31.419,253,32.888C260.667,34.356,268.333,41.37,276,41.468C283.667,41.565,291.333,34.745,299,27.074C306.667,19.403,314.333,10.881,322,10.216C329.667,9.551,337.333,16.743,345,24.165C352.667,31.588,360.333,39.241,368,37.076C375.667,34.91,383.333,22.926,391,17.138C398.667,11.349,406.333,11.756,414,16.608C421.667,21.46,429.333,30.757,437,36.904C444.667,43.05,452.333,46.045,460,43.755C467.667,41.464,475.333,33.886,483,33.324C490.667,32.761,498.333,39.213,506,39.028C513.667,38.843,521.333,32.022,529,31.514C536.667,31.006,544.333,36.812,552,38.202C559.667,39.593,567.333,36.569,575,32.402C582.667,28.235,590.333,22.926,598,19.863C605.667,16.801,613.333,15.987,621,13.474C628.667,10.961,636.333,6.751,644,11.867C651.667,16.983,659.333,31.426,663.167,38.647L667,45.869L667,214.286L663.167,214.286C659.333,214.286,651.667,214.286,644,214.286C636.333,214.286,628.667,214.286,621,214.286C613.333,214.286,605.667,214.286,598,214.286C590.333,214.286,582.667,214.286,575,214.286C567.333,214.286,559.667,214.286,552,214.286C544.333,214.286,536.667,214.286,529,214.286C521.333,214.286,513.667,214.286,506,214.286C498.333,214.286,490.667,214.286,483,214.286C475.333,214.286,467.667,214.286,460,214.286C452.333,214.286,444.667,214.286,437,214.286C429.333,214.286,421.667,214.286,414,214.286C406.333,214.286,398.667,214.286,391,214.286C383.333,214.286,375.667,214.286,368,214.286C360.333,214.286,352.667,214.286,345,214.286C337.333,214.286,329.667,214.286,322,214.286C314.333,214.286,306.667,214.286,299,214.286C291.333,214.286,283.667,214.286,276,214.286C268.333,214.286,260.667,214.286,253,214.286C245.333,214.286,237.667,214.286,230,214.286C222.333,214.286,214.667,214.286,207,214.286C199.333,214.286,191.667,214.286,184,214.286C176.333,214.286,168.667,214.286,161,214.286C153.333,214.286,145.667,214.286,138,214.286C130.333,214.286,122.667,214.286,115,214.286C107.333,214.286,99.667,214.286,92,214.286C84.333,214.286,76.667,214.286,69,214.286C61.333,214.286,53.667,214.286,46,214.286C38.333,214.286,30.667,214.286,23,214.286C15.333,214.286,7.667,214.286,3.833,214.286L0,214.286Z"></path></g><g transform="translate(0, 214.28571428571428)"><path fill="rgb(75, 44, 242)" fill-opacity="1" d="M0,50.892L3.833,43.868C7.667,36.843,15.333,22.795,23,15.655C30.667,8.515,38.333,8.284,46,7.685C53.667,7.087,61.333,6.122,69,7.504C76.667,8.887,84.333,12.616,92,14.87C99.667,17.124,107.333,17.903,115,17.183C122.667,16.463,130.333,14.244,138,12.961C145.667,11.677,153.333,11.328,161,13.587C168.667,15.846,176.333,20.712,184,24.757C191.667,28.802,199.333,32.026,207,36.61C214.667,41.193,222.333,47.135,230,42.691C237.667,38.247,245.333,23.415,253,16.051C260.667,8.687,268.333,8.789,276,9.054C283.667,9.319,291.333,9.745,299,15.495C306.667,21.244,314.333,32.316,322,35.631C329.667,38.946,337.333,34.504,345,32.42C352.667,30.336,360.333,30.611,368,28.407C375.667,26.204,383.333,21.521,391,24.913C398.667,28.305,406.333,39.772,414,36.987C421.667,34.201,429.333,17.163,437,11.93C444.667,6.696,452.333,13.268,460,13.834C467.667,14.401,475.333,8.962,483,11.559C490.667,14.155,498.333,24.785,506,28.341C513.667,31.897,521.333,28.378,529,23.263C536.667,18.147,544.333,11.436,552,11.909C559.667,12.383,567.333,20.041,575,23.156C582.667,26.271,590.333,24.842,598,27.432C605.667,30.022,613.333,36.63,621,35.742C628.667,34.853,636.333,26.467,644,23.004C651.667,19.542,659.333,21.002,663.167,21.732L667,22.462L667,160.714L663.167,160.714C659.333,160.714,651.667,160.714,644,160.714C636.333,160.714,628.667,160.714,621,160.714C613.333,160.714,605.667,160.714,598,160.714C590.333,160.714,582.667,160.714,575,160.714C567.333,160.714,559.667,160.714,552,160.714C544.333,160.714,536.667,160.714,529,160.714C521.333,160.714,513.667,160.714,506,160.714C498.333,160.714,490.667,160.714,483,160.714C475.333,160.714,467.667,160.714,460,160.714C452.333,160.714,444.667,160.714,437,160.714C429.333,160.714,421.667,160.714,414,160.714C406.333,160.714,398.667,160.714,391,160.714C383.333,160.714,375.667,160.714,368,160.714C360.333,160.714,352.667,160.714,345,160.714C337.333,160.714,329.667,160.714,322,160.714C314.333,160.714,306.667,160.714,299,160.714C291.333,160.714,283.667,160.714,276,160.714C268.333,160.714,260.667,160.714,253,160.714C245.333,160.714,237.667,160.714,230,160.714C222.333,160.714,214.667,160.714,207,160.714C199.333,160.714,191.667,160.714,184,160.714C176.333,160.714,168.667,160.714,161,160.714C153.333,160.714,145.667,160.714,138,160.714C130.333,160.714,122.667,160.714,115,160.714C107.333,160.714,99.667,160.714,92,160.714C84.333,160.714,76.667,160.714,69,160.714C61.333,160.714,53.667,160.714,46,160.714C38.333,160.714,30.667,160.714,23,160.714C15.333,160.714,7.667,160.714,3.833,160.714L0,160.714Z"></path></g><g transform="translate(0, 267.8571428571429)"><path fill="rgb(78, 27, 241)" fill-opacity="1" d="M0,44.431L3.833,38.308C7.667,32.186,15.333,19.94,23,15.642C30.667,11.343,38.333,14.99,46,19.837C53.667,24.684,61.333,30.73,69,35.581C76.667,40.432,84.333,44.087,92,45.682C99.667,47.276,107.333,46.81,115,39.016C122.667,31.221,130.333,16.1,138,11.259C145.667,6.417,153.333,11.856,161,15.291C168.667,18.725,176.333,20.155,184,21.069C191.667,21.983,199.333,22.38,207,26.864C214.667,31.349,222.333,39.92,230,39.731C237.667,39.543,245.333,30.594,253,28.858C260.667,27.122,268.333,32.598,276,33.099C283.667,33.601,291.333,29.127,299,24.434C306.667,19.741,314.333,14.83,322,17.792C329.667,20.754,337.333,31.589,345,36.797C352.667,42.005,360.333,41.587,368,37.389C375.667,33.192,383.333,25.215,391,22.801C398.667,20.386,406.333,23.534,414,22.718C421.667,21.903,429.333,17.123,437,20.621C444.667,24.119,452.333,35.895,460,41.462C467.667,47.029,475.333,46.387,483,42.588C490.667,38.789,498.333,31.833,506,31.935C513.667,32.037,521.333,39.198,529,40.702C536.667,42.207,544.333,38.056,552,33.275C559.667,28.493,567.333,23.082,575,25.966C582.667,28.85,590.333,40.03,598,40.814C605.667,41.598,613.333,31.985,621,28.614C628.667,25.242,636.333,28.11,644,27.085C651.667,26.061,659.333,21.143,663.167,18.684L667,16.225L667,107.143L663.167,107.143C659.333,107.143,651.667,107.143,644,107.143C636.333,107.143,628.667,107.143,621,107.143C613.333,107.143,605.667,107.143,598,107.143C590.333,107.143,582.667,107.143,575,107.143C567.333,107.143,559.667,107.143,552,107.143C544.333,107.143,536.667,107.143,529,107.143C521.333,107.143,513.667,107.143,506,107.143C498.333,107.143,490.667,107.143,483,107.143C475.333,107.143,467.667,107.143,460,107.143C452.333,107.143,444.667,107.143,437,107.143C429.333,107.143,421.667,107.143,414,107.143C406.333,107.143,398.667,107.143,391,107.143C383.333,107.143,375.667,107.143,368,107.143C360.333,107.143,352.667,107.143,345,107.143C337.333,107.143,329.667,107.143,322,107.143C314.333,107.143,306.667,107.143,299,107.143C291.333,107.143,283.667,107.143,276,107.143C268.333,107.143,260.667,107.143,253,107.143C245.333,107.143,237.667,107.143,230,107.143C222.333,107.143,214.667,107.143,207,107.143C199.333,107.143,191.667,107.143,184,107.143C176.333,107.143,168.667,107.143,161,107.143C153.333,107.143,145.667,107.143,138,107.143C130.333,107.143,122.667,107.143,115,107.143C107.333,107.143,99.667,107.143,92,107.143C84.333,107.143,76.667,107.143,69,107.143C61.333,107.143,53.667,107.143,46,107.143C38.333,107.143,30.667,107.143,23,107.143C15.333,107.143,7.667,107.143,3.833,107.143L0,107.143Z"></path></g><g transform="translate(0, 321.4285714285714)"><path fill="rgb(81, 10, 240)" fill-opacity="1" d="M0,52.169L3.833,50.412C7.667,48.654,15.333,45.139,23,39.583C30.667,34.028,38.333,26.432,46,23.354C53.667,20.276,61.333,21.715,69,22.927C76.667,24.139,84.333,25.124,92,26.673C99.667,28.221,107.333,30.333,115,30.463C122.667,30.593,130.333,28.741,138,26.965C145.667,25.19,153.333,23.491,161,25.834C168.667,28.178,176.333,34.563,184,36.235C191.667,37.907,199.333,34.866,207,29.555C214.667,24.244,222.333,16.663,230,14.435C237.667,12.206,245.333,15.331,253,17.328C260.667,19.325,268.333,20.194,276,21.652C283.667,23.111,291.333,25.157,299,24.441C306.667,23.725,314.333,20.247,322,18.591C329.667,16.935,337.333,17.101,345,17.656C352.667,18.211,360.333,19.154,368,19.169C375.667,19.184,383.333,18.27,391,20.665C398.667,23.061,406.333,28.765,414,27.496C421.667,26.227,429.333,17.985,437,15.034C444.667,12.083,452.333,14.424,460,18.301C467.667,22.179,475.333,27.593,483,27.313C490.667,27.032,498.333,21.057,506,18.267C513.667,15.476,521.333,15.87,529,20.979C536.667,26.087,544.333,35.91,552,36.28C559.667,36.649,567.333,27.564,575,20.575C582.667,13.585,590.333,8.69,598,9.677C605.667,10.663,613.333,17.531,621,23.25C628.667,28.97,636.333,33.541,644,38.218C651.667,42.895,659.333,47.677,663.167,50.068L667,52.459L667,53.571L663.167,53.571C659.333,53.571,651.667,53.571,644,53.571C636.333,53.571,628.667,53.571,621,53.571C613.333,53.571,605.667,53.571,598,53.571C590.333,53.571,582.667,53.571,575,53.571C567.333,53.571,559.667,53.571,552,53.571C544.333,53.571,536.667,53.571,529,53.571C521.333,53.571,513.667,53.571,506,53.571C498.333,53.571,490.667,53.571,483,53.571C475.333,53.571,467.667,53.571,460,53.571C452.333,53.571,444.667,53.571,437,53.571C429.333,53.571,421.667,53.571,414,53.571C406.333,53.571,398.667,53.571,391,53.571C383.333,53.571,375.667,53.571,368,53.571C360.333,53.571,352.667,53.571,345,53.571C337.333,53.571,329.667,53.571,322,53.571C314.333,53.571,306.667,53.571,299,53.571C291.333,53.571,283.667,53.571,276,53.571C268.333,53.571,260.667,53.571,253,53.571C245.333,53.571,237.667,53.571,230,53.571C222.333,53.571,214.667,53.571,207,53.571C199.333,53.571,191.667,53.571,184,53.571C176.333,53.571,168.667,53.571,161,53.571C153.333,53.571,145.667,53.571,138,53.571C130.333,53.571,122.667,53.571,115,53.571C107.333,53.571,99.667,53.571,92,53.571C84.333,53.571,76.667,53.571,69,53.571C61.333,53.571,53.667,53.571,46,53.571C38.333,53.571,30.667,53.571,23,53.571C15.333,53.571,7.667,53.571,3.833,53.571L0,53.571Z"></path></g></g></svg>