<svg xmlns="http://www.w3.org/2000/svg" viewBox="0 0 667 375"><g transform="
          rotate(0 333.5 187.5) 
          translate(-0 -0)
          scale(1)
        "><rect width="667" height="375" fill="rgb(59, 130, 246)"></rect><g transform="translate(0, 0)"><path fill="rgb(65, 100, 245)" fill-opacity="1" d="M0,91.912L3.833,91.165C7.667,90.418,15.333,88.925,23,88.693C30.667,88.461,38.333,89.492,46,89.608C53.667,89.724,61.333,88.925,69,78.954C76.667,68.983,84.333,49.839,92,48.223C99.667,46.606,107.333,62.516,115,57.64C122.667,52.763,130.333,27.101,138,25.646C145.667,24.191,153.333,46.942,161,52.609C168.667,58.276,176.333,46.859,184,36.291C191.667,25.722,199.333,16.004,207,21.021C214.667,26.037,222.333,45.789,230,49.35C237.667,52.912,245.333,40.283,253,33.962C260.667,27.641,268.333,27.628,276,36.79C283.667,45.953,291.333,64.291,299,74.14C306.667,83.989,314.333,85.349,322,74.134C329.667,62.92,337.333,39.131,345,29.329C352.667,19.527,360.333,23.711,368,32.883C375.667,42.056,383.333,56.215,391,66.232C398.667,76.248,406.333,82.122,414,78.259C421.667,74.396,429.333,60.795,437,46.956C444.667,33.118,452.333,19.042,460,11.293C467.667,3.543,475.333,2.12,483,10.698C490.667,19.275,498.333,37.854,506,43.693C513.667,49.533,521.333,42.634,529,35.463C536.667,28.292,544.333,20.85,552,18.816C559.667,16.783,567.333,20.159,575,22.554C582.667,24.949,590.333,26.362,598,34.65C605.667,42.938,613.333,58.099,621,68.424C628.667,78.75,636.333,84.238,644,87.531C651.667,90.823,659.333,91.919,663.167,92.467L667,93.015L667,375L663.167,375C659.333,375,651.667,375,644,375C636.333,375,628.667,375,621,375C613.333,375,605.667,375,598,375C590.333,375,582.667,375,575,375C567.333,375,559.667,375,552,375C544.333,375,536.667,375,529,375C521.333,375,513.667,375,506,375C498.333,375,490.667,375,483,375C475.333,375,467.667,375,460,375C452.333,375,444.667,375,437,375C429.333,375,421.667,375,414,375C406.333,375,398.667,375,391,375C383.333,375,375.667,375,368,375C360.333,375,352.667,375,345,375C337.333,375,329.667,375,322,375C314.333,375,306.667,375,299,375C291.333,375,283.667,375,276,375C268.333,375,260.667,375,253,375C245.333,375,237.667,375,230,375C222.333,375,214.667,375,207,375C199.333,375,191.667,375,184,375C176.333,375,168.667,375,161,375C153.333,375,145.667,375,138,375C130.333,375,122.667,375,115,375C107.333,375,99.667,375,92,375C84.333,375,76.667,375,69,375C61.333,375,53.667,375,46,375C38.333,375,30.667,375,23,375C15.333,375,7.667,375,3.833,375L0,375Z"></path></g><g transform="translate(0, 93.75)"><path fill="rgb(70, 70, 243)" fill-opacity="1" d="M0,51.688L3.833,47.616C7.667,43.544,15.333,35.399,23,28.291C30.667,21.182,38.333,15.11,46,24.082C53.667,33.053,61.333,57.069,69,70.877C76.667,84.685,84.333,88.285,92,90.212C99.667,92.14,107.333,92.395,115,87.052C122.667,81.71,130.333,70.769,138,63.937C145.667,57.105,153.333,54.381,161,48.817C168.667,43.253,176.333,34.848,184,41.487C191.667,48.126,199.333,69.809,207,78.851C214.667,87.893,222.333,84.295,230,83.272C237.667,82.249,245.333,83.801,253,82C260.667,80.199,268.333,75.044,276,62.185C283.667,49.325,291.333,28.761,299,31.224C306.667,33.686,314.333,59.175,322,64.967C329.667,70.758,337.333,56.851,345,45.025C352.667,33.199,360.333,23.455,368,23.255C375.667,23.054,383.333,32.396,391,45.415C398.667,58.434,406.333,75.129,414,76.13C421.667,77.131,429.333,62.439,437,53.781C444.667,45.123,452.333,42.5,460,35.529C467.667,28.557,475.333,17.238,483,11.444C490.667,5.65,498.333,5.382,506,10.479C513.667,15.575,521.333,26.036,529,40.214C536.667,54.393,544.333,72.287,552,78.355C559.667,84.423,567.333,78.664,575,65.768C582.667,52.873,590.333,32.841,598,35.306C605.667,37.77,613.333,62.732,621,66.631C628.667,70.53,636.333,53.367,644,49.345C651.667,45.322,659.333,54.44,663.167,58.999L667,63.558L667,281.25L663.167,281.25C659.333,281.25,651.667,281.25,644,281.25C636.333,281.25,628.667,281.25,621,281.25C613.333,281.25,605.667,281.25,598,281.25C590.333,281.25,582.667,281.25,575,281.25C567.333,281.25,559.667,281.25,552,281.25C544.333,281.25,536.667,281.25,529,281.25C521.333,281.25,513.667,281.25,506,281.25C498.333,281.25,490.667,281.25,483,281.25C475.333,281.25,467.667,281.25,460,281.25C452.333,281.25,444.667,281.25,437,281.25C429.333,281.25,421.667,281.25,414,281.25C406.333,281.25,398.667,281.25,391,281.25C383.333,281.25,375.667,281.25,368,281.25C360.333,281.25,352.667,281.25,345,281.25C337.333,281.25,329.667,281.25,322,281.25C314.333,281.25,306.667,281.25,299,281.25C291.333,281.25,283.667,281.25,276,281.25C268.333,281.25,260.667,281.25,253,281.25C245.333,281.25,237.667,281.25,230,281.25C222.333,281.25,214.667,281.25,207,281.25C199.333,281.25,191.667,281.25,184,281.25C176.333,281.25,168.667,281.25,161,281.25C153.333,281.25,145.667,281.25,138,281.25C130.333,281.25,122.667,281.25,115,281.25C107.333,281.25,99.667,281.25,92,281.25C84.333,281.25,76.667,281.25,69,281.25C61.333,281.25,53.667,281.25,46,281.25C38.333,281.25,30.667,281.25,23,281.25C15.333,281.25,7.667,281.25,3.833,281.25L0,281.25Z"></path></g><g transform="translate(0, 187.5)"><path fill="rgb(76, 40, 242)" fill-opacity="1" d="M0,39.574L3.833,44.511C7.667,49.447,15.333,59.32,23,64.122C30.667,68.925,38.333,68.657,46,64.051C53.667,59.445,61.333,50.5,69,47.919C76.667,45.338,84.333,49.12,92,50.969C99.667,52.818,107.333,52.734,115,51.814C122.667,50.894,130.333,49.138,138,47.598C145.667,46.058,153.333,44.733,161,38.427C168.667,32.121,176.333,20.835,184,14.095C191.667,7.355,199.333,5.163,207,8.294C214.667,11.425,222.333,19.881,230,25.196C237.667,30.512,245.333,32.688,253,33.181C260.667,33.674,268.333,32.484,276,35.263C283.667,38.042,291.333,44.79,299,49.652C306.667,54.514,314.333,57.491,322,62.151C329.667,66.811,337.333,73.155,345,72.072C352.667,70.989,360.333,62.478,368,53.678C375.667,44.878,383.333,35.789,391,36.016C398.667,36.242,406.333,45.785,414,44.269C421.667,42.753,429.333,30.179,437,33.591C444.667,37.004,452.333,56.404,460,60.212C467.667,64.02,475.333,52.236,483,54.862C490.667,57.487,498.333,74.521,506,81.701C513.667,88.88,521.333,86.204,529,78.693C536.667,71.181,544.333,58.834,552,58.077C559.667,57.319,567.333,68.151,575,67.261C582.667,66.372,590.333,53.76,598,48.574C605.667,43.388,613.333,45.628,621,40.722C628.667,35.816,636.333,23.765,644,25.726C651.667,27.687,659.333,43.659,663.167,51.645L667,59.632L667,187.5L663.167,187.5C659.333,187.5,651.667,187.5,644,187.5C636.333,187.5,628.667,187.5,621,187.5C613.333,187.5,605.667,187.5,598,187.5C590.333,187.5,582.667,187.5,575,187.5C567.333,187.5,559.667,187.5,552,187.5C544.333,187.5,536.667,187.5,529,187.5C521.333,187.5,513.667,187.5,506,187.5C498.333,187.5,490.667,187.5,483,187.5C475.333,187.5,467.667,187.5,460,187.5C452.333,187.5,444.667,187.5,437,187.5C429.333,187.5,421.667,187.5,414,187.5C406.333,187.5,398.667,187.5,391,187.5C383.333,187.5,375.667,187.5,368,187.5C360.333,187.5,352.667,187.5,345,187.5C337.333,187.5,329.667,187.5,322,187.5C314.333,187.5,306.667,187.5,299,187.5C291.333,187.5,283.667,187.5,276,187.5C268.333,187.5,260.667,187.5,253,187.5C245.333,187.5,237.667,187.5,230,187.5C222.333,187.5,214.667,187.5,207,187.5C199.333,187.5,191.667,187.5,184,187.5C176.333,187.5,168.667,187.5,161,187.5C153.333,187.5,145.667,187.5,138,187.5C130.333,187.5,122.667,187.5,115,187.5C107.333,187.5,99.667,187.5,92,187.5C84.333,187.5,76.667,187.5,69,187.5C61.333,187.5,53.667,187.5,46,187.5C38.333,187.5,30.667,187.5,23,187.5C15.333,187.5,7.667,187.5,3.833,187.5L0,187.5Z"></path></g><g transform="translate(0, 281.25)"><path fill="rgb(81, 10, 240)" fill-opacity="1" d="M0,0.125L3.833,7.001C7.667,13.877,15.333,27.628,23,40.345C30.667,53.061,38.333,64.742,46,58.024C53.667,51.306,61.333,26.19,69,24.795C76.667,23.4,84.333,45.728,92,49.256C99.667,52.785,107.333,37.515,115,33.537C122.667,29.56,130.333,36.874,138,39.048C145.667,41.221,153.333,38.253,161,43.878C168.667,49.503,176.333,63.722,184,59.086C191.667,54.45,199.333,30.959,207,29.51C214.667,28.062,222.333,48.656,230,55.386C237.667,62.117,245.333,54.983,253,57.553C260.667,60.124,268.333,72.398,276,72.568C283.667,72.738,291.333,60.804,299,47.38C306.667,33.956,314.333,19.042,322,17.878C329.667,16.714,337.333,29.3,345,42.29C352.667,55.279,360.333,68.673,368,64.883C375.667,61.093,383.333,40.121,391,29.991C398.667,19.861,406.333,20.573,414,29.064C421.667,37.555,429.333,53.825,437,64.581C444.667,75.337,452.333,80.58,460,76.571C467.667,72.562,475.333,59.301,483,58.316C490.667,57.331,498.333,68.622,506,68.299C513.667,67.975,521.333,56.038,529,55.15C536.667,54.261,544.333,64.421,552,66.854C559.667,69.288,567.333,63.996,575,56.704C582.667,49.412,590.333,40.12,598,34.761C605.667,29.402,613.333,27.977,621,23.579C628.667,19.182,636.333,11.814,644,20.767C651.667,29.72,659.333,54.995,663.167,67.633L667,80.27L667,93.75L663.167,93.75C659.333,93.75,651.667,93.75,644,93.75C636.333,93.75,628.667,93.75,621,93.75C613.333,93.75,605.667,93.75,598,93.75C590.333,93.75,582.667,93.75,575,93.75C567.333,93.75,559.667,93.75,552,93.75C544.333,93.75,536.667,93.75,529,93.75C521.333,93.75,513.667,93.75,506,93.75C498.333,93.75,490.667,93.75,483,93.75C475.333,93.75,467.667,93.75,460,93.75C452.333,93.75,444.667,93.75,437,93.75C429.333,93.75,421.667,93.75,414,93.75C406.333,93.75,398.667,93.75,391,93.75C383.333,93.75,375.667,93.75,368,93.75C360.333,93.75,352.667,93.75,345,93.75C337.333,93.75,329.667,93.75,322,93.75C314.333,93.75,306.667,93.75,299,93.75C291.333,93.75,283.667,93.75,276,93.75C268.333,93.75,260.667,93.75,253,93.75C245.333,93.75,237.667,93.75,230,93.75C222.333,93.75,214.667,93.75,207,93.75C199.333,93.75,191.667,93.75,184,93.75C176.333,93.75,168.667,93.75,161,93.75C153.333,93.75,145.667,93.75,138,93.75C130.333,93.75,122.667,93.75,115,93.75C107.333,93.75,99.667,93.75,92,93.75C84.333,93.75,76.667,93.75,69,93.75C61.333,93.75,53.667,93.75,46,93.75C38.333,93.75,30.667,93.75,23,93.75C15.333,93.75,7.667,93.75,3.833,93.75L0,93.75Z"></path></g></g></svg>